<svg width="360" height="60" viewBox="0 0 360 60" fill="none" xmlns="http://www.w3.org/2000/svg">
<g clip-path="url(#clip0_1526_3372)">
<rect width="360" height="60" fill="white"/>
<circle cx="30" cy="30" r="30" fill="#0157FF" fill-opacity="0.75"/>
<circle cx="90" cy="30" r="30" fill="#7ABCFA"/>
<circle cx="150" cy="30" r="30" fill="#C6EAFF"/>
<circle cx="210" cy="30" r="30" fill="#ADA5A5"/>
<circle cx="270" cy="30" r="30" fill="#C3AD6C"/>
<circle cx="330" cy="30" r="30" fill="#539A7C"/>
<path d="M21.6794 23.2662C21.2742 22.891 20.6415 22.9153 20.2662 23.3206C19.891 23.7258 19.9153 24.3585 20.3206 24.7338L21.6794 23.2662ZM38.3206 24.7338C38.7258 25.109 39.3585 25.0847 39.7338 24.6794C40.109 24.2742 40.0847 23.6415 39.6794 23.2662L38.3206 24.7338ZM21.6794 35.2662C21.2742 34.891 20.6415 34.9153 20.2662 35.3206C19.891 35.7258 19.9153 36.3585 20.3206 36.7338L21.6794 35.2662ZM38.3206 36.7338C38.7258 37.109 39.3585 37.0847 39.7338 36.6794C40.109 36.2742 40.0847 35.6415 39.6794 35.2662L38.3206 36.7338ZM21.6794 29.2662C21.2742 28.891 20.6415 28.9153 20.2662 29.3206C19.891 29.7258 19.9153 30.3585 20.3206 30.7338L21.6794 29.2662ZM38.3206 30.7338C38.7258 31.109 39.3585 31.0847 39.7338 30.6794C40.109 30.2742 40.0847 29.6415 39.6794 29.2662L38.3206 30.7338ZM20.3206 24.7338C20.5795 24.9735 20.9375 25.3115 21.4152 25.5683C21.9176 25.8384 22.5092 26 23.25 26V24C22.8208 24 22.5574 23.9116 22.3623 23.8067C22.1425 23.6885 21.9605 23.5265 21.6794 23.2662L20.3206 24.7338ZM23.25 26C24.77 26 25.5759 25.2705 26.1644 24.7474C26.7009 24.2705 27.02 24 27.75 24V22C26.23 22 25.4241 22.7295 24.8356 23.2526C24.2991 23.7295 23.98 24 23.25 24V26ZM27.75 24C28.1792 24 28.4426 24.0884 28.6377 24.1933C28.8575 24.3115 29.0395 24.4735 29.3206 24.7338L30.6794 23.2662C30.4205 23.0265 30.0625 22.6885 29.5848 22.4317C29.0824 22.1616 28.4908 22 27.75 22V24ZM29.3206 24.7338C29.5795 24.9735 29.9375 25.3115 30.4152 25.5683C30.9176 25.8384 31.5092 26 32.25 26V24C31.8208 24 31.5574 23.9116 31.3623 23.8067C31.1425 23.6885 30.9605 23.5265 30.6794 23.2662L29.3206 24.7338ZM32.25 26C33.77 26 34.5759 25.2705 35.1644 24.7474C35.7009 24.2705 36.02 24 36.75 24V22C35.23 22 34.4241 22.7295 33.8356 23.2526C33.2991 23.7295 32.98 24 32.25 24V26ZM36.75 24C37.1792 24 37.4426 24.0884 37.6377 24.1933C37.8575 24.3115 38.0395 24.4735 38.3206 24.7338L39.6794 23.2662C39.4205 23.0265 39.0625 22.6885 38.5848 22.4317C38.0824 22.1616 37.4908 22 36.75 22V24ZM20.3206 36.7338C20.5795 36.9735 20.9375 37.3115 21.4152 37.5683C21.9176 37.8384 22.5092 38 23.25 38V36C22.8208 36 22.5574 35.9116 22.3623 35.8067C22.1425 35.6885 21.9605 35.5265 21.6794 35.2662L20.3206 36.7338ZM23.25 38C24.77 38 25.5759 37.2705 26.1644 36.7474C26.7009 36.2705 27.02 36 27.75 36V34C26.23 34 25.4241 34.7295 24.8356 35.2526C24.2991 35.7295 23.98 36 23.25 36V38ZM27.75 36C28.1792 36 28.4426 36.0884 28.6377 36.1933C28.8575 36.3115 29.0395 36.4735 29.3206 36.7338L30.6794 35.2662C30.4205 35.0265 30.0625 34.6885 29.5848 34.4317C29.0824 34.1616 28.4908 34 27.75 34V36ZM29.3206 36.7338C29.5795 36.9735 29.9375 37.3115 30.4152 37.5683C30.9176 37.8384 31.5092 38 32.25 38V36C31.8208 36 31.5574 35.9116 31.3623 35.8067C31.1425 35.6885 30.9605 35.5265 30.6794 35.2662L29.3206 36.7338ZM32.25 38C33.77 38 34.5759 37.2705 35.1644 36.7474C35.7009 36.2705 36.02 36 36.75 36V34C35.23 34 34.4241 34.7295 33.8356 35.2526C33.2991 35.7295 32.98 36 32.25 36V38ZM36.75 36C37.1792 36 37.4426 36.0884 37.6377 36.1933C37.8575 36.3115 38.0395 36.4735 38.3206 36.7338L39.6794 35.2662C39.4205 35.0265 39.0625 34.6885 38.5848 34.4317C38.0824 34.1616 37.4908 34 36.75 34V36ZM20.3206 30.7338C20.5795 30.9735 20.9375 31.3115 21.4152 31.5683C21.9176 31.8384 22.5092 32 23.25 32V30C22.8208 30 22.5574 29.9116 22.3623 29.8067C22.1425 29.6885 21.9605 29.5265 21.6794 29.2662L20.3206 30.7338ZM23.25 32C24.77 32 25.5759 31.2705 26.1644 30.7474C26.7009 30.2705 27.02 30 27.75 30V28C26.23 28 25.4241 28.7295 24.8356 29.2526C24.2991 29.7295 23.98 30 23.25 30V32ZM27.75 30C28.1792 30 28.4426 30.0884 28.6377 30.1933C28.8575 30.3115 29.0395 30.4735 29.3206 30.7338L30.6794 29.2662C30.4205 29.0265 30.0625 28.6885 29.5848 28.4317C29.0824 28.1616 28.4908 28 27.75 28V30ZM29.3206 30.7338C29.5795 30.9735 29.9375 31.3115 30.4152 31.5683C30.9176 31.8384 31.5092 32 32.25 32V30C31.8208 30 31.5574 29.9116 31.3623 29.8067C31.1425 29.6885 30.9605 29.5265 30.6794 29.2662L29.3206 30.7338ZM32.25 32C33.77 32 34.5759 31.2705 35.1644 30.7474C35.7009 30.2705 36.02 30 36.75 30V28C35.23 28 34.4241 28.7295 33.8356 29.2526C33.2991 29.7295 32.98 30 32.25 30V32ZM36.75 30C37.1792 30 37.4426 30.0884 37.6377 30.1933C37.8575 30.3115 38.0395 30.4735 38.3206 30.7338L39.6794 29.2662C39.4205 29.0265 39.0625 28.6885 38.5848 28.4317C38.0824 28.1616 37.4908 28 36.75 28V30Z" fill="#131A29"/>
<path d="M97 31.8C97 35.7764 93.866 39 90 39C86.134 39 83 35.7764 83 31.8C83 30.8452 83.1807 29.9338 83.5088 29.1C84.5473 26.4614 90 21 90 21C90 21 95.4527 26.4614 96.4912 29.1C96.8193 29.9338 97 30.8452 97 31.8Z" stroke="#131A29" stroke-width="2" stroke-linecap="round" stroke-linejoin="round"/>
<path d="M150 21V39M147 22L150 25L153 22M147 38L150 35L153 38M142.217 25.4795L157.806 34.4795M141.635 28.2882L145.323 27.3L144.335 23.6117M155.665 36.3882L154.676 32.7L158.365 31.7117M157.806 25.5205L142.217 34.5205M155.664 23.6118L154.676 27.3L158.364 28.2883M141.635 31.7118L145.323 32.7L144.335 36.3883" stroke="#131A29" stroke-width="2" stroke-linecap="round" stroke-linejoin="round"/>
<path d="M210 35C205.582 35 202 31.866 202 28C202 24.134 205.582 21 210 21M209 39C213.418 39 217 35.866 217 32C217 28.134 213.418 25 209 25M209.95 29.95H209.959M210.4 29.95C210.4 30.1985 210.199 30.4 209.95 30.4C209.701 30.4 209.5 30.1985 209.5 29.95C209.5 29.7015 209.701 29.5 209.95 29.5C210.199 29.5 210.4 29.7015 210.4 29.95Z" stroke="#131A29" stroke-width="2" stroke-linecap="round" stroke-linejoin="round"/>
<path d="M261 21L279 39M265.712 25.7547C264.726 26.979 263.862 28.2027 263.509 29.1C263.181 29.9338 263 30.8452 263 31.8C263 35.7764 266.134 39 270 39C272.413 39 274.541 37.7438 275.8 35.8324M268.38 22.6941C269.313 21.6882 270 21 270 21C270 21 275.453 26.4614 276.491 29.1C276.758 29.779 276.928 30.5095 276.982 31.273" stroke="#131A29" stroke-width="2" stroke-linecap="round" stroke-linejoin="round"/>
<path d="M334 22L336.5 38L339 22H334ZM334 22L330 22M334 22L332 29L330 22M330 22L326 22M330 22L328 32L326 22M326 22L321 22L323.5 29L326 22Z" stroke="#131A29" stroke-width="2" stroke-linecap="round" stroke-linejoin="round"/>
</g>
<defs>
<clipPath id="clip0_1526_3372">
<rect width="360" height="60" fill="white"/>
</clipPath>
</defs>
</svg>
